<?xml version="1.0" encoding="UTF-8" standalone="no"?>
<!DOCTYPE svg PUBLIC "-//W3C//DTD SVG 1.1//EN" "http://www.w3.org/Graphics/SVG/1.1/DTD/svg11.dtd">
<svg version="1.1" xmlns="http://www.w3.org/2000/svg" xmlns:xlink="http://www.w3.org/1999/xlink" preserveAspectRatio="xMidYMid meet" viewBox="-0.9999999999998463 -1.0000000000000426 144.19608143137253 93.21568927450983" width="140.2" height="89.22"><defs><path d="M0 89.22L0 87.43L0 85.65L70.1 85.65L140.2 85.65L140.2 87.43L140.2 89.22L70.1 89.22L0 89.22Z" id="ciOJeWsG1"></path><path d="M0 67.8L0 66.02L0 64.24L70.1 64.24L140.2 64.24L140.2 66.02L140.2 67.8L70.1 67.8L0 67.8Z" id="e8uioqF7wx"></path><path d="M0 46.39L0 44.61L0 42.82L70.1 42.82L140.2 42.82L140.2 44.61L140.2 46.39L70.1 46.39L0 46.39Z" id="cDDzuzxU4"></path><path d="M0 24.98L0 23.2L0 21.41L70.1 21.41L140.2 21.41L140.2 23.2L140.2 24.98L70.1 24.98L0 24.98Z" id="bS9Mas2vy"></path><path d="M0 3.57L0 1.78L0 0L70.1 0L140.2 0L140.2 1.78L140.2 3.57L70.1 3.57L0 3.57Z" id="c1hydioEA7"></path><path d="M56.09 34.31L84.1 34.31L84.1 24L56.09 24L56.09 34.31Z" id="b1GIFLCRJ"></path></defs><g><g><use xlink:href="#ciOJeWsG1" opacity="0.4" fill="#000000" fill-opacity="1"></use><g><use xlink:href="#ciOJeWsG1" opacity="0.4" fill-opacity="0" stroke="#000000" stroke-width="1" stroke-opacity="0"></use></g></g><g><use xlink:href="#e8uioqF7wx" opacity="0.5" fill="#000000" fill-opacity="1"></use><g><use xlink:href="#e8uioqF7wx" opacity="0.5" fill-opacity="0" stroke="#000000" stroke-width="1" stroke-opacity="0"></use></g></g><g><use xlink:href="#cDDzuzxU4" opacity="0.6" fill="#000000" fill-opacity="1"></use><g><use xlink:href="#cDDzuzxU4" opacity="0.6" fill-opacity="0" stroke="#000000" stroke-width="1" stroke-opacity="0"></use></g></g><g><use xlink:href="#bS9Mas2vy" opacity="0.7" fill="#000000" fill-opacity="1"></use><g><use xlink:href="#bS9Mas2vy" opacity="0.7" fill-opacity="0" stroke="#000000" stroke-width="1" stroke-opacity="0"></use></g></g><g><use xlink:href="#c1hydioEA7" opacity="0.8" fill="#000000" fill-opacity="1"></use><g><use xlink:href="#c1hydioEA7" opacity="0.8" fill-opacity="0" stroke="#000000" stroke-width="1" stroke-opacity="0"></use></g></g><g><use xlink:href="#b1GIFLCRJ" opacity="1" fill="#000000" fill-opacity="1"></use><g><use xlink:href="#b1GIFLCRJ" opacity="1" fill-opacity="0" stroke="#000000" stroke-width="1" stroke-opacity="0"></use></g></g></g></svg>